<svg width="100%" height="100%" id="svg" viewBox="0 0 1440 700" xmlns="http://www.w3.org/2000/svg" class="transition duration-300 ease-in-out delay-150"><path d="M 0,700 C 0,700 0,233 0,233 C 76.26362297496318,213.96631075110457 152.52724594992637,194.93262150220912 204,204 C 255.47275405007363,213.06737849779088 282.1546391752577,250.235824742268 344,285 C 405.8453608247423,319.764175257732 502.8541973490427,352.1240795287187 564,319 C 625.1458026509573,285.8759204712813 650.4285714285714,187.26785714285714 696,168 C 741.5714285714286,148.73214285714286 807.4315169366715,208.80449189985274 879,248 C 950.5684830633285,287.19550810014726 1027.8453608247423,305.514175257732 1094,285 C 1160.1546391752577,264.485824742268 1215.1870397643593,205.13880706921944 1271,190 C 1326.8129602356407,174.86119293078056 1383.4064801178204,203.9305964653903 1440,233 C 1440,233 1440,700 1440,700 Z" stroke="none" stroke-width="0" fill="#fcb900" fill-opacity="0.53" class="transition-all duration-300 ease-in-out delay-150 path-0"></path><path d="M 0,700 C 0,700 0,466 0,466 C 67.40316642120767,412.71502209131074 134.80633284241534,359.43004418262143 188,384 C 241.19366715758466,408.56995581737857 280.1778350515463,510.9948453608248 336,531 C 391.8221649484537,551.0051546391752 464.4823269513993,488.59057437407955 532,478 C 599.5176730486007,467.40942562592045 661.8928571428571,508.64285714285717 733,501 C 804.1071428571429,493.35714285714283 883.9462444771724,436.8379970544919 933,413 C 982.0537555228276,389.1620029455081 1000.3221649484535,398.0051546391752 1051,401 C 1101.6778350515465,403.9948453608248 1184.7650957290134,401.14138438880707 1255,411 C 1325.2349042709866,420.85861561119293 1382.6174521354933,443.42930780559647 1440,466 C 1440,466 1440,700 1440,700 Z" stroke="none" stroke-width="0" fill="#fcb900" fill-opacity="1" class="transition-all duration-300 ease-in-out delay-150 path-1"></path></svg>